<?xml version="1.0" encoding="utf-8"?>
<!-- Generator: Adobe Illustrator 26.0.1, SVG Export Plug-In . SVG Version: 6.00 Build 0)  -->
<svg version="1.1" id="Layer_1" xmlns="http://www.w3.org/2000/svg" xmlns:xlink="http://www.w3.org/1999/xlink" x="0px" y="0px"
	 viewBox="0 0 1980 1080" style="enable-background:new 0 0 1980 1080;" xml:space="preserve">
<style type="text/css">
	.st0{fill:#13121C;}
	.st1{fill:#3479BE;}
	.st2{fill:#2553A5;}
	.st3{fill:#52C8EB;}
	.st4{fill:#9DDBEE;}
	.st5{display:none;}
	.st6{display:inline;}
	.st7{fill:url(#SVGID_1_);}
	.st8{fill:#363952;}
	.st9{fill:url(#SVGID_00000064321520083721305180000001137332027810174901_);}
	.st10{fill:url(#SVGID_00000145761479137754783570000006193780975350295230_);}
	.st11{fill:#FFFFFF;}
	.st12{fill:url(#SVGID_00000056427353097545091040000017435408740597565100_);}
	.st13{fill:url(#SVGID_00000089545715565145644690000017487601860907398812_);}
	.st14{fill:url(#SVGID_00000121963617746030805030000016783099072506728635_);}
	.st15{fill:url(#SVGID_00000078006282778944286450000017719554969632456364_);}
	.st16{fill:url(#SVGID_00000137127148973970827920000013164420050168579765_);}
	.st17{fill:url(#SVGID_00000023245501564535646880000013677638032931616941_);}
	.st18{fill:url(#SVGID_00000022535784314789684900000015592229892884345012_);}
	.st19{fill:url(#SVGID_00000037661210721066497640000011476136634970079898_);}
	.st20{fill:url(#SVGID_00000034774583040702360100000005612142448424422051_);}
	.st21{fill:url(#SVGID_00000180363398681848277850000008283995516859609511_);}
	.st22{fill:url(#SVGID_00000063626766026599413930000018058857623530423955_);}
	.st23{fill:url(#SVGID_00000052791832306243526950000016872670995196814518_);}
	.st24{fill:none;stroke:#FFFFFF;stroke-width:4.5898;stroke-miterlimit:10;}
	.st25{fill:#6BCEF5;}
	.st26{fill:url(#SVGID_00000075138295396395215580000013775498447030436747_);}
	.st27{fill:url(#SVGID_00000165222093415135613020000006342328345309105570_);}
	.st28{fill:url(#SVGID_00000134222773368591849830000016694648328680599429_);}
	.st29{fill:url(#SVGID_00000116948369709057603200000005024494558816996230_);}
	.st30{fill:url(#SVGID_00000091016096412949590400000000408728191708346008_);}
	.st31{fill:url(#SVGID_00000168098207966122185240000010829399821788773761_);}
	.st32{fill:url(#SVGID_00000182504736536200185000000004579514986181724818_);}
	.st33{fill:url(#SVGID_00000003825838564954714500000018178894828542048137_);}
	.st34{fill:url(#SVGID_00000181777157920695455070000004663181806733878407_);}
	.st35{fill:url(#SVGID_00000013880890556485946100000002277578212158712756_);}
	.st36{fill:url(#SVGID_00000029748449610523925840000016977620536943056307_);}
	.st37{fill:url(#SVGID_00000153683486100620254040000011059901495285260472_);}
	.st38{fill:url(#SVGID_00000102529174943273417540000003123408168706844574_);}
	.st39{fill:url(#SVGID_00000152984727917846667220000008236006798850237882_);}
	.st40{fill:url(#SVGID_00000067949500797849983180000004216011288852585362_);}
	.st41{fill:url(#SVGID_00000052799783469560044220000004564163575080224433_);}
</style>
<g id="Calque_1">
	<g>
		<polygon class="st0" points="-1.4,1.7 1981.4,1.7 1981.4,1080 -1.4,1080 		"/>
		<g>
			<g>
				<ellipse class="st1" cx="675.4" cy="180.2" rx="12.1" ry="12.5"/>
				<ellipse class="st2" cx="98.9" cy="246.4" rx="4.8" ry="5"/>
				<ellipse class="st1" cx="135.8" cy="95.9" rx="4.2" ry="4.4"/>
				<path class="st3" d="M12.9,455.5c0,3.8-3,6.9-6.7,6.9s-6.7-3.1-6.7-6.9s3-6.9,6.7-6.9C9.9,448.7,12.9,451.8,12.9,455.5z"/>
				<ellipse class="st2" cx="137.6" cy="663.5" rx="6.1" ry="6.2"/>
				<path class="st2" d="M608.8,705.3c0,5.9-4.6,10.6-10.3,10.6s-10.3-4.8-10.3-10.6c0-5.9,4.6-10.6,10.3-10.6
					C604.2,694.7,608.8,699.4,608.8,705.3z"/>
				<ellipse class="st4" cx="187.9" cy="927.6" rx="11.5" ry="11.9"/>
				<ellipse class="st1" cx="358.7" cy="995" rx="7.9" ry="8.1"/>
				<ellipse class="st4" cx="705.7" cy="824.5" rx="6.1" ry="6.2"/>
				<path class="st3" d="M759,405.6c0,7.9-6.2,14.4-13.9,14.4s-13.9-6.4-13.9-14.4s6.2-14.4,13.9-14.4
					C752.7,391.2,759,397.7,759,405.6z"/>
				<path class="st2" d="M501,7.2c0,4.5-3.5,8.1-7.9,8.1c-4.3,0-7.9-3.6-7.9-8.1s3.5-8.1,7.9-8.1C497.5-0.9,501,2.8,501,7.2z"/>
				<ellipse class="st1" cx="376.8" cy="68.4" rx="9.1" ry="9.4"/>
				<path class="st3" d="M260,132.7c0,2.8-2.2,5-4.8,5c-2.7,0-4.8-2.2-4.8-5s2.2-5,4.8-5C257.8,127.8,260,130,260,132.7z"/>
				<ellipse class="st1" cx="658.4" cy="262.6" rx="8.5" ry="8.7"/>
				<path class="st3" d="M292.7,721.5c0,3.8-3,6.9-6.7,6.9s-6.7-3.1-6.7-6.9s3-6.9,6.7-6.9C289.7,714.7,292.7,717.7,292.7,721.5z"/>
				<ellipse class="st1" cx="276.3" cy="1021.2" rx="9.1" ry="9.4"/>
				<ellipse class="st3" cx="509.5" cy="1075.5" rx="9.7" ry="10"/>
				<ellipse class="st1" cx="50.4" cy="852" rx="9.7" ry="10"/>
			</g>
			<g>
				<ellipse class="st1" cx="700.8" cy="236.9" rx="11.3" ry="10.5"/>
				<ellipse class="st2" cx="1240.9" cy="292.3" rx="4.5" ry="4.2"/>
				<ellipse class="st1" cx="1206.3" cy="166.3" rx="4" ry="3.7"/>
				<path class="st3" d="M1321.4,467.4c0,3.2,2.8,5.7,6.2,5.7c3.4,0,6.2-2.6,6.2-5.7c0-3.2-2.8-5.7-6.2-5.7
					C1324.2,461.6,1321.4,464.2,1321.4,467.4z"/>
				<ellipse class="st2" cx="1204.6" cy="641.4" rx="5.7" ry="5.2"/>
				<ellipse class="st2" cx="772.8" cy="676.4" rx="9.6" ry="8.9"/>
				<ellipse class="st4" cx="1157.5" cy="862.5" rx="10.8" ry="9.9"/>
				<ellipse class="st1" cx="997.5" cy="918.9" rx="7.4" ry="6.8"/>
				<ellipse class="st4" cx="672.4" cy="776.2" rx="5.7" ry="5.2"/>
				<ellipse class="st3" cx="635.6" cy="425.5" rx="13" ry="12"/>
				<ellipse class="st2" cx="871.6" cy="92.1" rx="7.4" ry="6.8"/>
				<ellipse class="st1" cx="980.5" cy="143.3" rx="8.5" ry="7.8"/>
				<ellipse class="st3" cx="1094.5" cy="197.1" rx="4.5" ry="4.2"/>
				<ellipse class="st1" cx="716.7" cy="305.9" rx="7.9" ry="7.3"/>
				<path class="st3" d="M1059.3,690c0,3.2,2.8,5.7,6.2,5.7c3.4,0,6.2-2.6,6.2-5.7c0-3.2-2.8-5.7-6.2-5.7
					C1062.1,684.2,1059.3,686.8,1059.3,690z"/>
				<ellipse class="st1" cx="1074.7" cy="940.9" rx="8.5" ry="7.8"/>
				<ellipse class="st3" cx="856.2" cy="986.3" rx="9.1" ry="8.4"/>
				<ellipse class="st1" cx="1286.3" cy="799.2" rx="9.1" ry="8.4"/>
			</g>
			<g>
				<ellipse class="st1" cx="1894.4" cy="168.3" rx="12.2" ry="12.6"/>
				<ellipse class="st2" cx="1313.8" cy="234.9" rx="4.9" ry="5"/>
				<ellipse class="st1" cx="1351" cy="83.4" rx="4.3" ry="4.4"/>
				<path class="st3" d="M1227.2,445.6c0,3.8-3,6.9-6.7,6.9s-6.7-3.1-6.7-6.9s3-6.9,6.7-6.9S1227.2,441.7,1227.2,445.6z"/>
				<ellipse class="st2" cx="1352.9" cy="654.9" rx="6.1" ry="6.3"/>
				<path class="st2" d="M1827.4,697.1c0,5.9-4.6,10.7-10.4,10.7c-5.7,0-10.4-4.8-10.4-10.7s4.6-10.7,10.4-10.7
					C1822.7,686.4,1827.4,691.2,1827.4,697.1z"/>
				<ellipse class="st4" cx="1403.5" cy="920.9" rx="11.6" ry="11.9"/>
				<ellipse class="st1" cx="1575.5" cy="988.8" rx="7.9" ry="8.2"/>
				<ellipse class="st4" cx="1924.9" cy="817.2" rx="6.1" ry="6.3"/>
				<path class="st3" d="M1978.6,395.3c0,8-6.3,14.5-14,14.5s-14-6.5-14-14.5s6.3-14.5,14-14.5S1978.6,387.3,1978.6,395.3z"/>
				<path class="st2" d="M1718.8-5.9c0,4.5-3.5,8.2-7.9,8.2s-7.9-3.7-7.9-8.2s3.5-8.2,7.9-8.2C1715.2-14.1,1718.8-10.4,1718.8-5.9z"
					/>
				<ellipse class="st1" cx="1593.8" cy="55.7" rx="9.1" ry="9.4"/>
				<path class="st3" d="M1476.1,120.5c0,2.8-2.2,5-4.9,5s-4.9-2.3-4.9-5s2.2-5,4.9-5S1476.1,117.7,1476.1,120.5z"/>
				<ellipse class="st1" cx="1877.4" cy="251.3" rx="8.5" ry="8.8"/>
				<path class="st3" d="M1509,713.4c0,3.8-3,6.9-6.7,6.9s-6.7-3.1-6.7-6.9c0-3.8,3-6.9,6.7-6.9S1509,709.6,1509,713.4z"/>
				<ellipse class="st1" cx="1492.5" cy="1015.2" rx="9.1" ry="9.4"/>
				<ellipse class="st3" cx="1727.3" cy="1069.9" rx="9.8" ry="10.1"/>
				<ellipse class="st1" cx="1265.1" cy="844.8" rx="9.8" ry="10.1"/>
			</g>
		</g>
	</g>
	<g class="st5">
		<g class="st6">
			<g>
				<g>
					<g>
						
							<linearGradient id="SVGID_1_" gradientUnits="userSpaceOnUse" x1="1269.9222" y1="36.6928" x2="1280.4126" y2="440.5591" gradientTransform="matrix(1 0 0 -1 0 1079.2756)">
							<stop  offset="0" style="stop-color:#1864AC"/>
							<stop  offset="1" style="stop-color:#82B5E2"/>
						</linearGradient>
						<path class="st7" d="M1137.2,653.4h278.3v283.2c0,11.9-9.6,21.5-21.5,21.5h-256.8V653.4z"/>
						<polygon class="st8" points="1171,767.1 1415.5,653.4 1415.5,653.4 1257.1,653.4 						"/>
						
							<linearGradient id="SVGID_00000114057726205103212560000007961465443443368620_" gradientUnits="userSpaceOnUse" x1="1263.05" y1="1058.8206" x2="1263.05" y2="731.7308" gradientTransform="matrix(1 0 0 -1 0 1079.2756)">
							<stop  offset="7.798960e-02" style="stop-color:#81CEC8"/>
							<stop  offset="1" style="stop-color:#FDEA66"/>
						</linearGradient>
						<path style="fill:url(#SVGID_00000114057726205103212560000007961465443443368620_);" d="M1110.7,226V103.9h283.2
							c11.9,0,21.5,9.6,21.5,21.5v256.8h-148.5C1180.7,382.2,1110.7,312.3,1110.7,226z"/>
						<path class="st8" d="M1415.5,204.6h-120.7c-18.6,0-33.7,15.1-33.7,33.7l0,0c0,18.6,15.1,33.7,33.7,33.7h120.7V204.6z"/>
						
							<linearGradient id="SVGID_00000098222339054176400120000012225761959167340676_" gradientUnits="userSpaceOnUse" x1="1021.3863" y1="428.7059" x2="1261.7136" y2="428.7059" gradientTransform="matrix(1 0 0 -1 0 1079.2756)">
							<stop  offset="7.798960e-02" style="stop-color:#81CEC8"/>
							<stop  offset="1" style="stop-color:#FDEA66"/>
						</linearGradient>
						<path style="fill:url(#SVGID_00000098222339054176400120000012225761959167340676_);" d="M1238.1,574.7
							c77.7,121.3-51.1,250.2-172.4,172.4c-8.3-5.3-15.4-12.4-20.7-20.7c-77.7-121.3,51.1-250.1,172.4-172.4
							C1225.7,559.3,1232.8,566.4,1238.1,574.7z"/>
						<path class="st11" d="M1174.8,624.5c26.7,41.8-17.6,86.1-59.4,59.4c-2.9-1.8-5.4-4.3-7.2-7.2c-26.7-41.8,17.6-86.1,59.4-59.4
							C1170.5,619.1,1173,621.6,1174.8,624.5z"/>
						
							<linearGradient id="SVGID_00000013187079959335869810000006744795756578050462_" gradientUnits="userSpaceOnUse" x1="1082.5" y1="673.1755" x2="1182.9" y2="673.1755" gradientTransform="matrix(1 0 0 -1 0 1079.2756)">
							<stop  offset="0" style="stop-color:#4C81C3"/>
							<stop  offset="1" style="stop-color:#90D5E2"/>
						</linearGradient>
						<path style="fill:url(#SVGID_00000013187079959335869810000006744795756578050462_);" d="M1082.5,341.5
							c35.1,0.8,63.2,29.4,63.2,64.6s-28.2,63.9-63.2,64.6v37.2c55.6-0.8,100.4-46.1,100.4-101.8s-44.8-101.1-100.4-101.8V341.5z"/>
						<path class="st8" d="M1079.2,372.8h-118V103.9h268.9v118C1230.1,305.2,1162.5,372.8,1079.2,372.8z"/>
						
							<linearGradient id="SVGID_00000043432010337277069390000000986700964534638250_" gradientUnits="userSpaceOnUse" x1="1080.7001" y1="223.5756" x2="1301.9" y2="223.5756" gradientTransform="matrix(1 0 0 -1 0 1079.2756)">
							<stop  offset="0" style="stop-color:#4C81C3"/>
							<stop  offset="1" style="stop-color:#90D5E2"/>
						</linearGradient>
						<path style="fill:url(#SVGID_00000043432010337277069390000000986700964534638250_);" d="M1301.9,958.1h-221.2V753.3h16.4
							C1210.2,753.3,1301.9,845,1301.9,958.1L1301.9,958.1z"/>
						
							<linearGradient id="SVGID_00000120524141989726322910000005955288583636773560_" gradientUnits="userSpaceOnUse" x1="872.7999" y1="657.0797" x2="872.7999" y2="966.5335" gradientTransform="matrix(1 0 0 -1 0 1079.2756)">
							<stop  offset="0" style="stop-color:#4C81C3"/>
							<stop  offset="1" style="stop-color:#90D5E2"/>
						</linearGradient>
						<path style="fill:url(#SVGID_00000120524141989726322910000005955288583636773560_);" d="M773.3,103.9h199.1
							c11.9,0,21.6,9.6,21.6,21.6v199.1c0,11.9-9.6,21.6-21.6,21.6H773.3c-11.9,0-21.6-9.6-21.6-21.6V125.5
							C751.7,113.5,761.3,103.9,773.3,103.9z"/>
						
							<linearGradient id="SVGID_00000173839851790769410020000010549910777470654634_" gradientUnits="userSpaceOnUse" x1="814.65" y1="295.1746" x2="814.65" y2="1013.741" gradientTransform="matrix(1 0 0 -1 0 1079.2756)">
							<stop  offset="0" style="stop-color:#1864AC"/>
							<stop  offset="0.2726" style="stop-color:#1C66AD"/>
							<stop  offset="0.4488" style="stop-color:#286AB0"/>
							<stop  offset="0.5976" style="stop-color:#3873B6"/>
							<stop  offset="0.7312" style="stop-color:#4B80BE"/>
							<stop  offset="0.8546" style="stop-color:#6093CB"/>
							<stop  offset="0.9691" style="stop-color:#7AADDC"/>
							<stop  offset="1" style="stop-color:#82B5E2"/>
						</linearGradient>
						<path style="fill:url(#SVGID_00000173839851790769410020000010549910777470654634_);" d="M877.6,601.6H751.7V125.5
							c0-11.9,9.7-21.6,21.6-21.6h33.6c39,0,70.6,31.6,70.6,70.6v427.1H877.6z"/>
						
							<linearGradient id="SVGID_00000129925655982653117540000003414001071854408369_" gradientUnits="userSpaceOnUse" x1="561.6782" y1="477.7256" x2="814.4218" y2="477.7256" gradientTransform="matrix(1 0 0 -1 0 1079.2756)">
							<stop  offset="7.798960e-02" style="stop-color:#81CEC8"/>
							<stop  offset="1" style="stop-color:#FDEA66"/>
						</linearGradient>
						<path style="fill:url(#SVGID_00000129925655982653117540000003414001071854408369_);" d="M586.5,681.3
							c-81.7-127.5,53.8-263,181.3-181.3c8.7,5.6,16.2,13,21.8,21.8c81.7,127.5-53.8,263-181.3,181.3
							C599.5,697.5,592,690.1,586.5,681.3z"/>
						
							<linearGradient id="SVGID_00000128487042367460905530000007308642913612714124_" gradientUnits="userSpaceOnUse" x1="761.2374" y1="347.0273" x2="582.9073" y2="619.7676" gradientTransform="matrix(1 0 0 -1 0 1079.2756)">
							<stop  offset="0" style="stop-color:#1864AC"/>
							<stop  offset="1" style="stop-color:#82B5E2"/>
						</linearGradient>
						<path style="fill:url(#SVGID_00000128487042367460905530000007308642913612714124_);" d="M688,601.6h126.3
							c0,69.3-57,126.3-126.3,126.3s-126.3-57-126.3-126.3s57-126.3,126.3-126.3c2.3,0,4.6,0.1,6.8,0.2L688,601.6z"/>
						
							<linearGradient id="SVGID_00000030475422173057179060000006888010768763482781_" gradientUnits="userSpaceOnUse" x1="967.0182" y1="485.9214" x2="458.2533" y2="402.0015" gradientTransform="matrix(1 0 0 -1 0 1079.2756)">
							<stop  offset="0" style="stop-color:#4C81C3"/>
							<stop  offset="0.1548" style="stop-color:#5086C4"/>
							<stop  offset="0.3728" style="stop-color:#5B92C8"/>
							<stop  offset="0.6283" style="stop-color:#6CA7D1"/>
							<stop  offset="0.9101" style="stop-color:#86C7DD"/>
							<stop  offset="1" style="stop-color:#90D5E2"/>
						</linearGradient>
						<path style="fill:url(#SVGID_00000030475422173057179060000006888010768763482781_);" d="M688,601.6h126.3
							c0,69.3-57,126.3-126.3,126.3s-126.3-57-126.3-126.3c0-10.9,1.4-21.8,4.2-32.3L688,601.6z"/>
						
							<linearGradient id="SVGID_00000142141818112868941550000003789986510994342799_" gradientUnits="userSpaceOnUse" x1="661.1" y1="299.9756" x2="878.2" y2="299.9756" gradientTransform="matrix(1 0 0 -1 0 1079.2756)">
							<stop  offset="7.798960e-02" style="stop-color:#81CEC8"/>
							<stop  offset="1" style="stop-color:#FDEA66"/>
						</linearGradient>
						
							<rect x="661.1" y="600.9" style="fill:url(#SVGID_00000142141818112868941550000003789986510994342799_);" width="217.1" height="356.8"/>
						
							<linearGradient id="SVGID_00000127003413430311110020000011859148122799291046_" gradientUnits="userSpaceOnUse" x1="763.1266" y1="33.4881" x2="768.4283" y2="245.5593" gradientTransform="matrix(1 0 0 -1 0 1079.2756)">
							<stop  offset="0" style="stop-color:#1864AC"/>
							<stop  offset="1" style="stop-color:#82B5E2"/>
						</linearGradient>
						<path style="fill:url(#SVGID_00000127003413430311110020000011859148122799291046_);" d="M874.8,957.7H661.1V744h93.8
							c66.2,0,120,53.7,120,120L874.8,957.7L874.8,957.7z"/>
						
							<linearGradient id="SVGID_00000102512542330828629380000016368125413483999363_" gradientUnits="userSpaceOnUse" x1="661.1" y1="424.1256" x2="878.2999" y2="424.1256" gradientTransform="matrix(1 0 0 -1 0 1079.2756)">
							<stop  offset="0" style="stop-color:#4C81C3"/>
							<stop  offset="1" style="stop-color:#90D5E2"/>
						</linearGradient>
						<path style="fill:url(#SVGID_00000102512542330828629380000016368125413483999363_);" d="M661.1,600.9
							C661.1,601,661.1,601,661.1,600.9c0,60,48.6,108.6,108.6,108.6s108.6-48.6,108.6-108.6c0,0,0,0,0-0.1L661.1,600.9L661.1,600.9
							z"/>
						<polygon class="st8" points="878.2,600.9 878.2,804 1081.3,600.9 						"/>
						
							<linearGradient id="SVGID_00000020389075275894489090000013838019473177154204_" gradientUnits="userSpaceOnUse" x1="988.8986" y1="410.4049" x2="978.8343" y2="93.3806" gradientTransform="matrix(1 0 0 -1 0 1079.2756)">
							<stop  offset="7.798960e-02" style="stop-color:#81CEC8"/>
							<stop  offset="0.2785" style="stop-color:#85CFC6"/>
							<stop  offset="0.4422" style="stop-color:#92D1BF"/>
							<stop  offset="0.593" style="stop-color:#A5D4B2"/>
							<stop  offset="0.736" style="stop-color:#BEDAA1"/>
							<stop  offset="0.8722" style="stop-color:#DCE189"/>
							<stop  offset="1" style="stop-color:#FDEA66"/>
						</linearGradient>
						<polygon style="fill:url(#SVGID_00000020389075275894489090000013838019473177154204_);" points="877.6,956.4 877.6,957.7 
							1081.9,957.7 1081.9,753.3 1080.7,753.3 						"/>
						
							<linearGradient id="SVGID_00000147204342123866136230000008645072664551761552_" gradientUnits="userSpaceOnUse" x1="925.008" y1="376.1256" x2="1035.692" y2="376.1256" gradientTransform="matrix(1 0 0 -1 0 1079.2756)">
							<stop  offset="7.798960e-02" style="stop-color:#81CEC8"/>
							<stop  offset="1" style="stop-color:#FDEA66"/>
						</linearGradient>
						<path style="fill:url(#SVGID_00000147204342123866136230000008645072664551761552_);" d="M1024.6,667.9
							c36.3,56-23.4,115.7-79.5,79.5c-3.6-2.3-6.7-5.4-9-9c-36.3-56,23.4-115.7,79.5-79.5C1019.2,661.2,1022.3,664.3,1024.6,667.9z"
							/>
						<path class="st24" d="M1002.4,686.1c17.4,27.4-11.7,56.4-39.1,39.1c-2-1.3-3.7-3-5-5c-17.4-27.4,11.7-56.4,39.1-39.1
							C999.4,682.3,1001.1,684.1,1002.4,686.1z"/>
						<rect x="1035.7" y="801" class="st11" width="152.6" height="12.7"/>
						<rect x="1035.7" y="825.1" class="st8" width="152.6" height="12.7"/>
						<rect x="1035.7" y="873.2" class="st8" width="152.6" height="12.7"/>
						<rect x="1035.7" y="921.4" class="st8" width="152.6" height="12.7"/>
						<rect x="1035.7" y="849.2" class="st11" width="152.6" height="12.7"/>
						<rect x="1035.7" y="897.3" class="st11" width="152.6" height="12.7"/>
						<rect x="1035.7" y="945.4" class="st11" width="152.6" height="12.7"/>
						<polygon class="st25" points="751.7,600.2 661.1,600.2 661.1,368.1 698.5,368.1 						"/>
						
							<linearGradient id="SVGID_00000105425146892187249690000006746377620369969577_" gradientUnits="userSpaceOnUse" x1="734.3" y1="711.1756" x2="765.4999" y2="711.1756" gradientTransform="matrix(1 0 0 -1 0 1079.2756)">
							<stop  offset="0" style="stop-color:#4C81C3"/>
							<stop  offset="1" style="stop-color:#90D5E2"/>
						</linearGradient>
						<circle style="fill:url(#SVGID_00000105425146892187249690000006746377620369969577_);" cx="749.9" cy="368.1" r="15.6"/>
						
							<linearGradient id="SVGID_00000029739257613145576850000013798668127969403824_" gradientUnits="userSpaceOnUse" x1="734.7" y1="657.5756" x2="765.9" y2="657.5756" gradientTransform="matrix(1 0 0 -1 0 1079.2756)">
							<stop  offset="0" style="stop-color:#4C81C3"/>
							<stop  offset="1" style="stop-color:#90D5E2"/>
						</linearGradient>
						<circle style="fill:url(#SVGID_00000029739257613145576850000013798668127969403824_);" cx="750.3" cy="421.7" r="15.6"/>
						
							<linearGradient id="SVGID_00000139271949744391762720000001644763319294452390_" gradientUnits="userSpaceOnUse" x1="734.2924" y1="599.5756" x2="765.4697" y2="599.5756" gradientTransform="matrix(1 0 0 -1 0 1079.2756)">
							<stop  offset="0" style="stop-color:#4C81C3"/>
							<stop  offset="1" style="stop-color:#90D5E2"/>
						</linearGradient>
						<path style="fill:url(#SVGID_00000139271949744391762720000001644763319294452390_);" d="M763.3,471.1
							c8.6,16.7-9.7,31.7-24.4,20.1c-1-0.8-1.8-1.8-2.4-2.9c-8.6-16.7,9.7-31.7,24.4-20.1C761.9,469,762.7,470,763.3,471.1z"/>
						
							<linearGradient id="SVGID_00000083079087738767928740000002995702741074118322_" gradientUnits="userSpaceOnUse" x1="561.6" y1="695.6256" x2="661" y2="695.6256" gradientTransform="matrix(1 0 0 -1 0 1079.2756)">
							<stop  offset="0" style="stop-color:#4C81C3"/>
							<stop  offset="1" style="stop-color:#90D5E2"/>
						</linearGradient>
						
							<rect x="561.6" y="368.1" style="fill:url(#SVGID_00000083079087738767928740000002995702741074118322_);" width="99.4" height="31.1"/>
						
							<linearGradient id="SVGID_00000083058430831804704510000007782984354632026292_" gradientUnits="userSpaceOnUse" x1="724.3674" y1="428.7256" x2="811.4932" y2="428.7256" gradientTransform="matrix(1 0 0 -1 0 1079.2756)">
							<stop  offset="7.798960e-02" style="stop-color:#81CEC8"/>
							<stop  offset="1" style="stop-color:#FDEA66"/>
						</linearGradient>
						<path style="fill:url(#SVGID_00000083058430831804704510000007782984354632026292_);" d="M802.8,622.8
							c28.5,44.1-18.5,91.1-62.6,62.6c-2.8-1.8-5.3-4.3-7.1-7.1c-28.6-44.1,18.5-91.1,62.6-62.6C798.5,617.5,800.9,620,802.8,622.8z
							"/>
						<path class="st11" d="M782.1,639.4c11.5,17.8-7.5,36.8-25.3,25.3c-1.2-0.8-2.2-1.8-3-3c-11.5-17.8,7.5-36.8,25.3-25.3
							C780.3,637.2,781.3,638.2,782.1,639.4z"/>
						<g>
							<g>
								<circle class="st8" cx="781.5" cy="831.9" r="8.8"/>
								<circle class="st8" cx="781.5" cy="889.4" r="8.8"/>
							</g>
							<g>
								<circle class="st8" cx="834.6" cy="831.9" r="8.8"/>
								<circle class="st8" cx="834.6" cy="889.4" r="8.8"/>
							</g>
							<g>
								<circle class="st8" cx="887.8" cy="831.9" r="8.8"/>
								<circle class="st8" cx="887.8" cy="889.4" r="8.8"/>
							</g>
							<g>
								<circle class="st8" cx="940.9" cy="831.9" r="8.8"/>
								<circle class="st8" cx="940.9" cy="889.4" r="8.8"/>
							</g>
						</g>
						<rect x="561.6" y="720.6" class="st8" width="99.4" height="99.4"/>
						
							<linearGradient id="SVGID_00000059294488187976157110000006167368231056031146_" gradientUnits="userSpaceOnUse" x1="619.604" y1="287.6321" x2="604.7174" y2="79.2196" gradientTransform="matrix(1 0 0 -1 0 1079.2756)">
							<stop  offset="7.798960e-02" style="stop-color:#81CEC8"/>
							<stop  offset="1" style="stop-color:#FDEA66"/>
						</linearGradient>
						<path style="fill:url(#SVGID_00000059294488187976157110000006167368231056031146_);" d="M561.6,858.2H661v99.4h-77.9
							c-11.9,0-21.5-9.6-21.5-21.5V858.2z"/>
						
							<linearGradient id="SVGID_00000152233629918885242990000016278170829989056928_" gradientUnits="userSpaceOnUse" x1="877.6" y1="764.6256" x2="993.9" y2="764.6256" gradientTransform="matrix(1 0 0 -1 0 1079.2756)">
							<stop  offset="7.798960e-02" style="stop-color:#81CEC8"/>
							<stop  offset="1" style="stop-color:#FDEA66"/>
						</linearGradient>
						
							<rect x="877.6" y="256.5" style="fill:url(#SVGID_00000152233629918885242990000016278170829989056928_);" width="116.3" height="116.3"/>
						
							<linearGradient id="SVGID_00000151530633145737054910000006378064547449814955_" gradientUnits="userSpaceOnUse" x1="634.9062" y1="958.1707" x2="629.8741" y2="661.2742" gradientTransform="matrix(1 0 0 -1 0 1079.2756)">
							<stop  offset="7.798960e-02" style="stop-color:#81CEC8"/>
							<stop  offset="1" style="stop-color:#FDEA66"/>
						</linearGradient>
						<path style="fill:url(#SVGID_00000151530633145737054910000006378064547449814955_);" d="M661.1,368.1h-58V205.5
							c0-16,13-29,29-29l0,0c16,0,29,13,29,29V368.1z"/>
						
							<linearGradient id="SVGID_00000021837620899936367830000012710561390632505257_" gradientUnits="userSpaceOnUse" x1="878.2" y1="560.1756" x2="1081.9" y2="560.1756" gradientTransform="matrix(1 0 0 -1 0 1079.2756)">
							<stop  offset="7.798960e-02" style="stop-color:#81CEC8"/>
							<stop  offset="1" style="stop-color:#FDEA66"/>
						</linearGradient>
						<polygon style="fill:url(#SVGID_00000021837620899936367830000012710561390632505257_);" points="878.2,600.9 1081.9,437.3 
							1081.9,600.9 						"/>
						
							<linearGradient id="SVGID_00000127738647726281548890000013245858570560629948_" gradientUnits="userSpaceOnUse" x1="979.7" y1="671.2756" x2="1090.3" y2="671.2756" gradientTransform="matrix(1 0 0 -1 0 1079.2756)">
							<stop  offset="0" style="stop-color:#1864AC"/>
							<stop  offset="1" style="stop-color:#82B5E2"/>
						</linearGradient>
						<path style="fill:url(#SVGID_00000127738647726281548890000013245858570560629948_);" d="M1035,352.7
							c-30.5,0-55.3,24.8-55.3,55.3s24.8,55.3,55.3,55.3s55.3-24.8,55.3-55.3S1065.6,352.7,1035,352.7z M1035,443.1
							c-19.4,0-35.1-15.7-35.1-35.1s15.7-35.1,35.1-35.1c19.4,0,35.1,15.7,35.1,35.1S1054.4,443.1,1035,443.1z"/>
						<path class="st8" d="M1035,394.3c-7.6,0-13.7,6.1-13.7,13.7s6.1,13.7,13.7,13.7s13.7-6.1,13.7-13.7S1042.6,394.3,1035,394.3z"
							/>
						
							<rect x="849.1" y="469.6" transform="matrix(0.7711 -0.6368 0.6368 0.7711 -83.2972 715.3145)" class="st8" width="208.1" height="7.7"/>
						<polygon class="st8" points="1415.6,406.9 1120.9,650.2 1125.8,656.1 1415.6,416.8 						"/>
						<polygon class="st8" points="1415.6,423.5 1129.1,660.1 1134,666 1415.6,433.5 						"/>
						<polygon class="st8" points="1415.6,440.1 1137.2,670 1142.1,675.9 1415.6,450.1 						"/>
						
							<linearGradient id="SVGID_00000023986310322539379210000003077738629383428787_" gradientUnits="userSpaceOnUse" x1="861.2" y1="539.5756" x2="884.4506" y2="539.5756" gradientTransform="matrix(1 0 0 -1 0 1079.2756)">
							<stop  offset="7.798960e-02" style="stop-color:#81CEC8"/>
							<stop  offset="1" style="stop-color:#FDEA66"/>
						</linearGradient>
						<circle style="fill:url(#SVGID_00000023986310322539379210000003077738629383428787_);" cx="872.8" cy="539.7" r="11.6"/>
						
							<linearGradient id="SVGID_00000069374898394119067500000006410366319530416011_" gradientUnits="userSpaceOnUse" x1="994.2" y1="910.4756" x2="1033" y2="910.4756" gradientTransform="matrix(1 0 0 -1 0 1079.2756)">
							<stop  offset="7.798960e-02" style="stop-color:#81CEC8"/>
							<stop  offset="1" style="stop-color:#FDEA66"/>
						</linearGradient>
						<path style="fill:url(#SVGID_00000069374898394119067500000006410366319530416011_);" d="M1019.7,155.5h-25.5v26.6h25.5
							c7.4,0,13.3-6,13.3-13.3C1033,161.4,1027,155.5,1019.7,155.5z"/>
						
							<linearGradient id="SVGID_00000149362443858627854530000013554150719406483618_" gradientUnits="userSpaceOnUse" x1="917.1" y1="910.4756" x2="994.2" y2="910.4756" gradientTransform="matrix(1 0 0 -1 0 1079.2756)">
							<stop  offset="0" style="stop-color:#1864AC"/>
							<stop  offset="1" style="stop-color:#82B5E2"/>
						</linearGradient>
						<path style="fill:url(#SVGID_00000149362443858627854530000013554150719406483618_);" d="M930.4,155.5
							c-7.4,0-13.3,6-13.3,13.3c0,7.4,6,13.3,13.3,13.3h63.8v-26.6H930.4z"/>
						
							<linearGradient id="SVGID_00000039116603959308542450000009183223982424818579_" gradientUnits="userSpaceOnUse" x1="957" y1="861.9756" x2="994.4388" y2="861.9756" gradientTransform="matrix(1 0 0 -1 0 1079.2756)">
							<stop  offset="7.798960e-02" style="stop-color:#81CEC8"/>
							<stop  offset="1" style="stop-color:#FDEA66"/>
						</linearGradient>
						<path style="fill:url(#SVGID_00000039116603959308542450000009183223982424818579_);" d="M970.3,230.6h24.1V204h-24.1
							c-7.4,0-13.3,6-13.3,13.3S963,230.6,970.3,230.6z"/>
						
							<linearGradient id="SVGID_00000144334841250087029240000004836312199900658817_" gradientUnits="userSpaceOnUse" x1="994.4999" y1="861.9756" x2="1071.6" y2="861.9756" gradientTransform="matrix(1 0 0 -1 0 1079.2756)">
							<stop  offset="0" style="stop-color:#1864AC"/>
							<stop  offset="1" style="stop-color:#82B5E2"/>
						</linearGradient>
						<path style="fill:url(#SVGID_00000144334841250087029240000004836312199900658817_);" d="M1058.3,230.6
							c7.4,0,13.3-6,13.3-13.3c0-7.4-6-13.3-13.3-13.3h-63.8v26.6H1058.3z"/>
						<path class="st11" d="M1295.4,421.7L1295.4,421.7c-18.6,0-33.7-15.1-33.7-33.7V237.6c0-18.6,15.1-33.7,33.7-33.7l0,0
							c18.6,0,33.7,15.1,33.7,33.7V388C1329.1,406.6,1314,421.7,1295.4,421.7z"/>
						
							<linearGradient id="SVGID_00000031165991147441884680000004728161008735829686_" gradientUnits="userSpaceOnUse" x1="1261.7001" y1="695.4256" x2="1329.1" y2="695.4256" gradientTransform="matrix(1 0 0 -1 0 1079.2756)">
							<stop  offset="0" style="stop-color:#1864AC"/>
							<stop  offset="1" style="stop-color:#82B5E2"/>
						</linearGradient>
						<path style="fill:url(#SVGID_00000031165991147441884680000004728161008735829686_);" d="M1295.4,421.7L1295.4,421.7
							c-18.6,0-33.7-15.1-33.7-33.7v-8.3c0-18.6,15.1-33.7,33.7-33.7l0,0c18.6,0,33.7,15.1,33.7,33.7v8.3
							C1329.1,406.6,1314,421.7,1295.4,421.7z"/>
						<polygon class="st8" points="1021.4,485.9 1081.3,485.9 1081.3,437.3 						"/>
					</g>
				</g>
				<rect x="645.5" y="183.4" class="st0" width="693.2" height="693.2"/>
			</g>
		</g>
	</g>
</g>
<g id="Calque_2" class="st5">
	<g class="st6">
		<g>
			<g>
				<g>
					<g>
						<path class="st2" d="M1719.7,1083.4c0,4.5-3.5,8.2-7.9,8.2s-7.9-3.7-7.9-8.2s3.5-8.2,7.9-8.2
							C1716.2,1075.2,1719.7,1078.9,1719.7,1083.4z"/>
					</g>
				</g>
			</g>
		</g>
	</g>
</g>
<g id="Calque_3" class="st5">
</g>
</svg>
